<svg width="94" height="90" viewBox="0 0 94 90" fill="none" xmlns="http://www.w3.org/2000/svg">
<rect opacity="0.08" width="93.0978" height="90" rx="45" fill="url(#paint0_linear_144_683)"/>
<path d="M59 39.9C59 38.3373 58.6896 36.7898 58.0866 35.3461C57.4835 33.9023 56.5996 32.5904 55.4853 31.4854C54.371 30.3804 53.0481 29.5039 51.5922 28.9058C50.1363 28.3078 48.5759 28 47 28C45.4241 28 43.8637 28.3078 42.4078 28.9058C40.9519 29.5039 39.629 30.3804 38.5147 31.4854C37.4004 32.5904 36.5165 33.9023 35.9134 35.3461C35.3104 36.7898 35 38.3373 35 39.9C35 42.2579 35.7011 44.4509 36.8943 46.3005H36.8806L47 62L57.1194 46.3005H57.1074C58.3433 44.3907 59.0002 42.1692 59 39.9ZM47 45C45.636 45 44.3279 44.4627 43.3635 43.5062C42.399 42.5498 41.8571 41.2526 41.8571 39.9C41.8571 38.5474 42.399 37.2502 43.3635 36.2938C44.3279 35.3373 45.636 34.8 47 34.8C48.364 34.8 49.6721 35.3373 50.6365 36.2938C51.601 37.2502 52.1429 38.5474 52.1429 39.9C52.1429 41.2526 51.601 42.5498 50.6365 43.5062C49.6721 44.4627 48.364 45 47 45Z" fill="#FBC218"/>
<defs>
<linearGradient id="paint0_linear_144_683" x1="0" y1="0" x2="89.9485" y2="93.0445" gradientUnits="userSpaceOnUse">
<stop stop-color="#F9EC7D"/>
<stop offset="1" stop-color="#F5B100"/>
</linearGradient>
</defs>
</svg>
