<svg width="175" height="26" viewBox="0 0 175 26" fill="none" xmlns="http://www.w3.org/2000/svg">
<path d="M13 21.7742L19.3048 25.7642C20.4594 26.4955 21.8723 25.4145 21.5685 24.0474L19.8973 16.5443L25.4729 11.4892C26.4908 10.5672 25.9439 8.81858 24.6069 8.7073L17.269 8.05555L14.3977 0.965712C13.8812 -0.321904 12.1188 -0.321904 11.6023 0.965712L8.73096 8.03965L1.39307 8.69141C0.056147 8.80268 -0.490777 10.5513 0.527109 11.4733L6.10269 16.5284L4.43153 24.0315C4.12769 25.3986 5.54057 26.4796 6.69519 25.7483L13 21.7742Z" fill="#FFB22C"/>
<path d="M50.5 21.7742L57.0473 25.7642C58.2463 26.4955 59.7136 25.4145 59.398 24.0474L57.6626 16.5443L63.4526 11.4892C64.5097 10.5672 63.9417 8.81858 62.5534 8.7073L54.9332 8.05555L51.9515 0.965712C51.415 -0.321904 49.585 -0.321904 49.0485 0.965712L46.0668 8.03965L38.4467 8.69141C37.0583 8.80268 36.4903 10.5513 37.5474 11.4733L43.3374 16.5284L41.602 24.0315C41.2864 25.3986 42.7537 26.4796 43.9527 25.7483L50.5 21.7742Z" fill="#FFB22C"/>
<path d="M87.5 21.7742L94.0473 25.7642C95.2463 26.4955 96.7136 25.4145 96.398 24.0474L94.6626 16.5443L100.453 11.4892C101.51 10.5672 100.942 8.81858 99.5534 8.7073L91.9332 8.05555L88.9515 0.965712C88.415 -0.321904 86.585 -0.321904 86.0485 0.965712L83.0668 8.03965L75.4467 8.69141C74.0583 8.80268 73.4903 10.5513 74.5474 11.4733L80.3374 16.5284L78.602 24.0315C78.2864 25.3986 79.7537 26.4796 80.9527 25.7483L87.5 21.7742Z" fill="#FFB22C"/>
<path d="M124.5 21.7742L131.047 25.7642C132.246 26.4955 133.714 25.4145 133.398 24.0474L131.663 16.5443L137.453 11.4892C138.51 10.5672 137.942 8.81858 136.553 8.7073L128.933 8.05555L125.951 0.965712C125.415 -0.321904 123.585 -0.321904 123.049 0.965712L120.067 8.03965L112.447 8.69141C111.058 8.80268 110.49 10.5513 111.547 11.4733L117.337 16.5284L115.602 24.0315C115.286 25.3986 116.754 26.4796 117.953 25.7483L124.5 21.7742Z" fill="#FFB22C"/>
<path d="M162 21.7742L168.305 25.7642C169.459 26.4955 170.872 25.4145 170.568 24.0474L168.897 16.5443L174.473 11.4892C175.491 10.5672 174.944 8.81858 173.607 8.7073L166.269 8.05555L163.398 0.965712C162.881 -0.321904 161.119 -0.321904 160.602 0.965712L157.731 8.03965L150.393 8.69141C149.056 8.80268 148.509 10.5513 149.527 11.4733L155.103 16.5284L153.432 24.0315C153.128 25.3986 154.541 26.4796 155.695 25.7483L162 21.7742Z" fill="#FFB22C"/>
</svg>
