<svg width="161" height="37" viewBox="0 0 161 37" fill="none" xmlns="http://www.w3.org/2000/svg">
<g clip-path="url(#clip0_119_27)">
<path d="M37 18.5C37 8.2828 28.7172 0 18.5 0C8.2828 0 0 8.2828 0 18.5C0 27.7338 6.76522 35.3875 15.6094 36.7753V23.8477H10.9121V18.5H15.6094V14.4242C15.6094 9.78766 18.3714 7.22656 22.5972 7.22656C24.6212 7.22656 26.7383 7.58789 26.7383 7.58789V12.1406H24.4055C22.1074 12.1406 21.3906 13.5667 21.3906 15.0298V18.5H26.5215L25.7013 23.8477H21.3906V36.7753C30.2348 35.3875 37 27.734 37 18.5Z" fill="#1877F2"/>
<path d="M25.7013 23.8477L26.5215 18.5H21.3906V15.0298C21.3906 13.5666 22.1074 12.1406 24.4055 12.1406H26.7383V7.58789C26.7383 7.58789 24.6212 7.22656 22.597 7.22656C18.3714 7.22656 15.6094 9.78766 15.6094 14.4242V18.5H10.9121V23.8477H15.6094V36.7753C16.5656 36.9251 17.5321 37.0002 18.5 37C19.4679 37.0002 20.4344 36.9251 21.3906 36.7753V23.8477H25.7013Z" fill="white"/>
</g>
<g clip-path="url(#clip1_119_27)">
<path d="M90.3281 0H70.6719C65.8825 0 62 3.88253 62 8.67188V28.3281C62 33.1175 65.8825 37 70.6719 37H90.3281C95.1175 37 99 33.1175 99 28.3281V8.67188C99 3.88253 95.1175 0 90.3281 0Z" fill="url(#paint0_radial_119_27)"/>
<path d="M90.3281 0H70.6719C65.8825 0 62 3.88253 62 8.67188V28.3281C62 33.1175 65.8825 37 70.6719 37H90.3281C95.1175 37 99 33.1175 99 28.3281V8.67188C99 3.88253 95.1175 0 90.3281 0Z" fill="url(#paint1_radial_119_27)"/>
<path d="M80.5013 4.04688C76.5761 4.04688 76.0834 4.06407 74.5418 4.13417C73.0032 4.2047 71.9529 4.44824 71.0339 4.80566C70.0832 5.1748 69.2769 5.66866 68.4736 6.47225C67.6695 7.2757 67.1757 8.08204 66.8054 9.03234C66.4469 9.95155 66.2031 11.0023 66.1339 12.5403C66.0649 14.082 66.0469 14.5748 66.0469 18.5001C66.0469 22.4255 66.0642 22.9166 66.1342 24.4582C66.205 25.9968 66.4485 27.0471 66.8057 27.9661C67.1751 28.9168 67.6689 29.7231 68.4725 30.5264C69.2757 31.3305 70.082 31.8255 71.032 32.1946C71.9517 32.5521 73.0022 32.7956 74.5405 32.8661C76.0823 32.9362 76.5745 32.9534 80.4996 32.9534C84.4252 32.9534 84.9163 32.9362 86.4579 32.8661C87.9965 32.7956 89.048 32.5521 89.9677 32.1946C90.918 31.8255 91.7231 31.3305 92.5262 30.5264C93.3302 29.7231 93.8239 28.9168 94.1943 27.9665C94.5496 27.0471 94.7936 25.9965 94.8658 24.4584C94.9351 22.9169 94.9531 22.4255 94.9531 18.5001C94.9531 14.5748 94.9351 14.0823 94.8658 12.5405C94.7936 11.0019 94.5496 9.9517 94.1943 9.03277C93.8239 8.08204 93.3302 7.2757 92.5262 6.47225C91.7223 5.66837 90.9182 5.17451 89.9668 4.80581C89.0454 4.44824 87.9945 4.20456 86.4558 4.13417C84.9141 4.06407 84.4233 4.04688 80.4968 4.04688H80.5013ZM79.2047 6.65147C79.5896 6.65089 80.019 6.65147 80.5013 6.65147C84.3604 6.65147 84.8177 6.66535 86.3417 6.73458C87.7508 6.79904 88.5157 7.03448 89.0252 7.23234C89.6997 7.49423 90.1806 7.80743 90.6861 8.31344C91.192 8.8193 91.505 9.30102 91.7677 9.97555C91.9655 10.4843 92.2013 11.2492 92.2654 12.6583C92.3347 14.182 92.3497 14.6396 92.3497 18.4968C92.3497 22.3541 92.3347 22.8118 92.2654 24.3353C92.201 25.7445 91.9655 26.5093 91.7677 27.0182C91.5058 27.6928 91.192 28.173 90.6861 28.6786C90.1803 29.1845 89.7 29.4975 89.0252 29.7596C88.5163 29.9583 87.7508 30.1932 86.3417 30.2576C84.818 30.3268 84.3604 30.3419 80.5013 30.3419C76.642 30.3419 76.1846 30.3268 74.6611 30.2576C73.2519 30.1926 72.487 29.9571 71.9771 29.7593C71.3028 29.4972 70.8209 29.1842 70.315 28.6783C69.8092 28.1725 69.4961 27.6919 69.2335 27.0171C69.0356 26.5082 68.7999 25.7433 68.7357 24.3341C68.6665 22.8105 68.6526 22.3529 68.6526 18.4932C68.6526 14.6335 68.6665 14.1784 68.7357 12.6547C68.8002 11.2455 69.0356 10.4807 69.2335 9.97121C69.4955 9.29668 69.8092 8.81496 70.3152 8.3091C70.8212 7.80324 71.3028 7.49004 71.9773 7.22757C72.4868 7.02884 73.2519 6.79398 74.6611 6.72923C75.9944 6.66896 76.5111 6.65089 79.2047 6.64786V6.65147ZM88.2164 9.05127C87.2589 9.05127 86.482 9.8274 86.482 10.7851C86.482 11.7426 87.2589 12.5194 88.2164 12.5194C89.1739 12.5194 89.9508 11.7426 89.9508 10.7851C89.9508 9.82755 89.1739 9.05069 88.2164 9.05069V9.05127ZM80.5013 11.0777C76.4024 11.0777 73.079 14.4011 73.079 18.5001C73.079 22.5992 76.4024 25.921 80.5013 25.921C84.6004 25.921 87.9225 22.5992 87.9225 18.5001C87.9225 14.4012 84.6001 11.0777 80.501 11.0777H80.5013ZM80.5013 13.6823C83.162 13.6823 85.3191 15.8392 85.3191 18.5001C85.3191 21.1608 83.162 23.3179 80.5013 23.3179C77.8406 23.3179 75.6836 21.1608 75.6836 18.5001C75.6836 15.8392 77.8405 13.6823 80.5013 13.6823Z" fill="white"/>
</g>
<g clip-path="url(#clip2_119_27)">
<path d="M124.789 18.2788C124.789 21.3875 125.607 24.4229 127.164 27.0984L124.641 36.2397L134.069 33.7868C136.676 35.1954 139.598 35.9334 142.567 35.9337H142.575C152.376 35.9337 160.355 28.0198 160.359 18.2927C160.361 13.5792 158.513 9.14695 155.155 5.81236C151.797 2.47806 147.332 0.640823 142.574 0.638672C132.772 0.638672 124.794 8.55208 124.79 18.2788" fill="url(#paint2_linear_119_27)"/>
<path d="M124.155 18.2728C124.154 21.4934 125.002 24.6374 126.614 27.4087L124 36.8777L133.766 34.3369C136.457 35.7926 139.487 36.5602 142.57 36.5613H142.577C152.73 36.5613 160.996 28.3628 161 18.2875C161.002 13.4046 159.087 8.81303 155.609 5.35898C152.131 1.90536 147.506 0.00200775 142.577 0C132.423 0 124.159 8.19736 124.155 18.2728ZM129.971 26.9314L129.606 26.357C128.073 23.9386 127.264 21.1438 127.265 18.274C127.268 9.89951 134.137 3.0862 142.583 3.0862C146.673 3.08792 150.517 4.67003 153.409 7.54054C156.3 10.4113 157.891 14.2275 157.89 18.2863C157.886 26.6608 151.017 33.475 142.577 33.475H142.571C139.823 33.4735 137.128 32.7413 134.778 31.3575L134.219 31.0284L128.423 32.536L129.971 26.9314Z" fill="url(#paint3_linear_119_27)"/>
<path d="M137.973 10.6338C137.628 9.87329 137.266 9.85795 136.938 9.84461C136.669 9.83314 136.362 9.834 136.055 9.834C135.748 9.834 135.25 9.94858 134.828 10.4053C134.406 10.8625 133.217 11.9674 133.217 14.2145C133.217 16.4616 134.866 18.6334 135.096 18.9384C135.327 19.2429 138.281 24.0018 142.96 25.8326C146.848 27.3541 147.639 27.0515 148.483 26.9752C149.327 26.8992 151.207 25.8706 151.59 24.8041C151.974 23.7377 151.974 22.8236 151.859 22.6326C151.744 22.4423 151.437 22.328 150.977 22.0996C150.516 21.8713 148.253 20.7662 147.831 20.6138C147.409 20.4615 147.102 20.3855 146.795 20.8428C146.488 21.2994 145.607 22.328 145.338 22.6326C145.07 22.9379 144.801 22.9759 144.341 22.7474C143.88 22.5183 142.398 22.0365 140.639 20.4807C139.27 19.27 138.347 17.7749 138.078 17.3176C137.81 16.861 138.049 16.6135 138.28 16.3859C138.487 16.1812 138.741 15.8525 138.971 15.5859C139.201 15.3192 139.277 15.1289 139.431 14.8243C139.584 14.5194 139.507 14.2526 139.392 14.0242C139.277 13.7957 138.383 11.5369 137.973 10.6338Z" fill="white"/>
</g>
<defs>
<radialGradient id="paint0_radial_119_27" cx="0" cy="0" r="1" gradientUnits="userSpaceOnUse" gradientTransform="translate(71.8281 39.8497) rotate(-90) scale(36.6697 34.1058)">
<stop stop-color="#FFDD55"/>
<stop offset="0.1" stop-color="#FFDD55"/>
<stop offset="0.5" stop-color="#FF543E"/>
<stop offset="1" stop-color="#C837AB"/>
</radialGradient>
<radialGradient id="paint1_radial_119_27" cx="0" cy="0" r="1" gradientUnits="userSpaceOnUse" gradientTransform="translate(55.8024 2.6653) rotate(78.681) scale(16.3916 67.5666)">
<stop stop-color="#3771C8"/>
<stop offset="0.128" stop-color="#3771C8"/>
<stop offset="1" stop-color="#6600FF" stop-opacity="0"/>
</radialGradient>
<linearGradient id="paint2_linear_119_27" x1="1910.56" y1="3560.74" x2="1910.56" y2="0.638672" gradientUnits="userSpaceOnUse">
<stop stop-color="#1FAF38"/>
<stop offset="1" stop-color="#60D669"/>
</linearGradient>
<linearGradient id="paint3_linear_119_27" x1="1974" y1="3687.77" x2="1974" y2="0" gradientUnits="userSpaceOnUse">
<stop stop-color="#F9F9F9"/>
<stop offset="1" stop-color="white"/>
</linearGradient>
<clipPath id="clip0_119_27">
<rect width="37" height="37" fill="white"/>
</clipPath>
<clipPath id="clip1_119_27">
<rect width="37" height="37" fill="white" transform="translate(62)"/>
</clipPath>
<clipPath id="clip2_119_27">
<rect width="37" height="37" fill="white" transform="translate(124)"/>
</clipPath>
</defs>
</svg>
