<svg width="42" height="42" viewBox="0 0 42 42" fill="none" xmlns="http://www.w3.org/2000/svg">
<path d="M19.0984 22.8991C18.764 22.5653 18.3654 22.3026 17.9267 22.127L4.04916 16.562C3.88346 16.4955 3.74207 16.3799 3.64396 16.2307C3.54585 16.0816 3.49572 15.906 3.50029 15.7275C3.50486 15.549 3.56392 15.3762 3.66954 15.2323C3.77515 15.0883 3.92228 14.9801 4.09116 14.9222L37.3412 3.54723C37.4962 3.49122 37.664 3.48053 37.8249 3.51641C37.9859 3.55229 38.1332 3.63326 38.2498 3.74984C38.3664 3.86641 38.4473 4.01378 38.4832 4.1747C38.5191 4.33561 38.5084 4.50342 38.4524 4.65848L27.0774 37.9085C27.0195 38.0774 26.9113 38.2245 26.7674 38.3301C26.6234 38.4357 26.4506 38.4948 26.2721 38.4993C26.0937 38.5039 25.918 38.4538 25.7689 38.3557C25.6197 38.2576 25.5041 38.1162 25.4377 37.9505L19.8727 24.0695C19.6962 23.6311 19.4328 23.233 19.0984 22.8991ZM19.0984 22.8991L38.2442 3.75723" stroke="white" stroke-width="2" stroke-linecap="round" stroke-linejoin="round"/>
</svg>
