<svg width="74" height="74" viewBox="0 0 74 74" fill="none" xmlns="http://www.w3.org/2000/svg">
<path d="M12.333 55.5003C12.333 52.2293 13.6324 49.0923 15.9454 46.7793C18.2583 44.4664 21.3953 43.167 24.6663 43.167H49.333C52.604 43.167 55.741 44.4664 58.054 46.7793C60.3669 49.0923 61.6663 52.2293 61.6663 55.5003C61.6663 57.1358 61.0166 58.7043 59.8602 59.8608C58.7037 61.0173 57.1352 61.667 55.4997 61.667H18.4997C16.8642 61.667 15.2957 61.0173 14.1392 59.8608C12.9827 58.7043 12.333 57.1358 12.333 55.5003Z" stroke="white" stroke-width="2" stroke-linejoin="round"/>
<path d="M37 30.8335C42.1086 30.8335 46.25 26.6921 46.25 21.5835C46.25 16.4749 42.1086 12.3335 37 12.3335C31.8914 12.3335 27.75 16.4749 27.75 21.5835C27.75 26.6921 31.8914 30.8335 37 30.8335Z" stroke="white" stroke-width="2"/>
</svg>
