<svg width="30" height="30" viewBox="0 0 30 30" fill="none" xmlns="http://www.w3.org/2000/svg">
<path d="M8.25 21.75L18.75 18.75L21.75 8.25L11.25 11.25L8.25 21.75ZM15 17.25C14.375 17.25 13.844 17.0315 13.407 16.5945C12.97 16.1575 12.751 15.626 12.75 15C12.749 14.374 12.968 13.843 13.407 13.407C13.846 12.971 14.377 12.752 15 12.75C15.623 12.748 16.1545 12.967 16.5945 13.407C17.0345 13.847 17.253 14.378 17.25 15C17.247 15.622 17.0285 16.1535 16.5945 16.5945C16.1605 17.0355 15.629 17.254 15 17.25ZM15 30C12.925 30 10.975 29.606 9.15 28.818C7.325 28.03 5.7375 26.9615 4.3875 25.6125C3.0375 24.2635 1.969 22.676 1.182 20.85C0.395002 19.024 0.0010019 17.074 1.89873e-06 15C-0.000998101 12.926 0.393002 10.976 1.182 9.15C1.971 7.324 3.0395 5.7365 4.3875 4.3875C5.7355 3.0385 7.323 1.97 9.15 1.182C10.977 0.394 12.927 0 15 0C17.073 0 19.023 0.394 20.85 1.182C22.677 1.97 24.2645 3.0385 25.6125 4.3875C26.9605 5.7365 28.0295 7.324 28.8195 9.15C29.6095 10.976 30.003 12.926 30 15C29.997 17.074 29.603 19.024 28.818 20.85C28.033 22.676 26.9645 24.2635 25.6125 25.6125C24.2605 26.9615 22.673 28.0305 20.85 28.8195C19.027 29.6085 17.077 30.002 15 30Z" fill="#3FB8FF"/>
</svg>
